<?xml version="1.0" ?><!DOCTYPE svg  PUBLIC '-//W3C//DTD SVG 1.1//EN'  'http://www.w3.org/Graphics/SVG/1.1/DTD/svg11.dtd'><svg height="32px" id="Layer_1" style="enable-background:new 0 0 32 32;" version="1.1" viewBox="0 0 32 32" width="32px" xml:space="preserve" xmlns="http://www.w3.org/2000/svg" xmlns:xlink="http://www.w3.org/1999/xlink"><path d="M28,2H4C2.9,2,2,2.9,2,4v24c0,1.1,0.9,2,2,2h24c1.1,0,2-0.9,2-2V4C30,2.9,29.1,2,28,2z M26,26H6V6h20V26z M24,8H8v4h16V8z   M10,18c1.104,0,2-0.896,2-2s-0.896-2-2-2s-2,0.896-2,2S8.896,18,10,18z M16,14c-1.104,0-2,0.896-2,2s0.896,2,2,2s2-0.896,2-2  S17.104,14,16,14z M22,14c-1.104,0-2,0.896-2,2s0.896,2,2,2s2-0.896,2-2S23.104,14,22,14z M10,24c1.104,0,2-0.896,2-2s-0.896-2-2-2  s-2,0.896-2,2S8.896,24,10,24z M16,20c-1.104,0-2,0.896-2,2s0.896,2,2,2s2-0.896,2-2S17.104,20,16,20z M22,20c-1.104,0-2,0.896-2,2  s0.896,2,2,2s2-0.896,2-2S23.104,20,22,20z"/></svg>